<svg width="198" height="200" viewBox="0 0 198 200" fill="none" xmlns="http://www.w3.org/2000/svg">
<path fill-rule="evenodd" clip-rule="evenodd" d="M0 31.7897L26.6419 200L165.577 177.995L142.921 34.9462L117.244 13.22L0 31.7897Z" fill="#C5CFD6"/>
<path fill-rule="evenodd" clip-rule="evenodd" d="M117.226 13.222L121.211 38.384L142.921 34.9457" fill="#C5CFD6"/>
<path fill-rule="evenodd" clip-rule="evenodd" d="M197.54 27.9651L178.866 197.246L39.0477 181.822L47.5224 114.465L62.237 12.309L197.54 27.9651Z" fill="#E3E9ED"/>
<path fill-rule="evenodd" clip-rule="evenodd" d="M35.1449 0L32.1725 170.282L172.818 172.737L175.346 27.9271L153.832 2.07203L35.1449 0Z" fill="#F2F2F2"/>
<path fill-rule="evenodd" clip-rule="evenodd" d="M153.815 2.07104L155.051 2.09284L154.617 26.9466L175.975 27.3192L175.953 28.5552L153.359 28.1608L153.815 2.07104Z" fill="#C5CFD6"/>
<path fill-rule="evenodd" clip-rule="evenodd" d="M157.145 58.9006L54.9892 57.1175L55.011 55.8815L157.167 57.6646L157.145 58.9006Z" fill="#C5CFD6"/>
<path fill-rule="evenodd" clip-rule="evenodd" d="M157.687 82.569L55.5307 80.7859L55.552 79.5499L157.708 81.3329L157.687 82.569Z" fill="#C5CFD6"/>
<path fill-rule="evenodd" clip-rule="evenodd" d="M155.539 108.12L53.3821 106.337L53.4039 105.101L155.56 106.884L155.539 108.12Z" fill="#C5CFD6"/>
<path fill-rule="evenodd" clip-rule="evenodd" d="M156.08 131.788L53.9235 130.005L53.9453 128.769L156.102 130.552L156.08 131.788Z" fill="#C5CFD6"/>
</svg>
