<svg width="111" height="147" viewBox="0 0 111 147" fill="none" xmlns="http://www.w3.org/2000/svg">
<path d="M59.8404 121L45.3411 102.858L45.4248 99.2631C52.2297 99.7321 57.5201 99.0118 58.751 92.5751L44.2515 92.4918L46.5982 88.5619L58.1643 88.7284C56.402 85.0659 51.5553 84.6144 44 84.8834L46.5982 81.0367L71.1557 81L68.7251 84.7988H61.9363C63.1771 86.1086 64.0852 87.6157 64.1155 88.8953L71.1557 88.8117L68.7251 92.5739L64.0316 92.6575C63.2989 98.2695 58.1428 101.592 51.6274 102.356L66.2238 120.995L59.8409 120.999L59.8404 121Z" fill="#222831" stroke="#222831" stroke-width="0.099084"/>
<path d="M55.312 146.902C26.8663 146.902 0 146.903 0 115.214C0 91.2846 15.4454 55.1872 37.6098 41.6515C37.9499 41.4426 38.3403 41.335 38.7412 41.335H71.8853C72.286 41.335 72.6765 41.4461 73.0166 41.6515C95.1811 55.1905 110.626 91.2846 110.626 115.214C110.623 146.903 83.7576 146.902 55.312 146.902ZM39.3578 45.6694C19.2816 58.3563 4.33828 92.669 4.33828 115.21C4.33828 141.241 23.7073 142.561 55.312 142.561C86.9168 142.561 106.286 141.241 106.286 115.21C106.286 92.669 91.3424 58.353 71.2661 45.6694H39.3578Z" fill="#222831"/>
<path d="M74.2866 45.6749H36.3367C32.4266 45.6749 29.2473 42.4955 29.2473 38.5855V34.6484C29.2473 30.7383 32.4266 27.559 36.3367 27.559H74.2866C78.1967 27.559 81.376 30.7383 81.376 34.6484V38.5855C81.376 42.4955 78.1967 45.6749 74.2866 45.6749ZM36.34 31.8967C34.8245 31.8967 33.5888 33.1296 33.5888 34.6484V38.5855C33.5888 40.101 34.821 41.337 36.34 41.337H74.2899C75.8054 41.337 77.0411 40.101 77.0411 38.5855V34.6484C77.0411 33.1329 75.8087 31.8967 74.2899 31.8967H36.34Z" fill="#222831"/>
<path d="M70.6812 31.8938C70.3275 31.8938 69.9737 31.8097 69.6402 31.6279C68.5895 31.0518 68.2026 29.735 68.7784 28.6841C68.9435 28.3776 72.9777 21.0456 81.3268 8.83343C82.0509 7.7759 82.6745 6.46941 82.2568 5.9642C79.741 2.92298 61.4257 5.24316 52.9823 8.92429C47.0345 11.5142 42.737 9.07596 38.9514 6.92048C36.1426 5.32746 33.7181 3.95003 30.724 4.44511C30.6902 4.45183 30.6596 4.45523 30.6361 4.46197C29.9792 6.95423 36.8331 17.9776 45.5056 28.3306C46.2768 29.25 46.1562 30.6173 45.2368 31.3853C44.3206 32.1565 42.9491 32.035 42.1811 31.1155C36.7521 24.6356 24.3614 8.90424 26.6045 2.84872C27.1399 1.39377 28.3532 0.440655 30.0103 0.164493C34.5368 -0.589918 38.0191 1.39719 41.0975 3.14513C44.5597 5.11537 47.2975 6.6644 51.2514 4.9434C57.8021 2.08738 80.4175 -3.07536 85.6042 3.19571C86.8132 4.65739 87.6718 7.24404 84.9135 11.2788C76.6856 23.3123 72.6308 30.6912 72.5904 30.7619C72.1897 31.4861 71.4457 31.8938 70.6812 31.8938Z" fill="#222831"/>
</svg>
